HIERARCHY
ROOT hip
{
  OFFSET 0 0 0
  CHANNELS 6 Xposition Yposition Zposition Zrotation Yrotation Xrotation
  JOINT abdomen
  {
    OFFSET 0 20.6881 -0.73152
    CHANNELS 3 Zrotation Xrotation Yrotation
    JOINT chest
    {
      OFFSET 0 11.7043 -0.48768
      CHANNELS 3 Zrotation Xrotation Yrotation
      JOINT neck
      {
        OFFSET 0 22.1894 -2.19456
        CHANNELS 3 Zrotation Xrotation Yrotation
        JOINT head
        {
          OFFSET -0.24384 7.07133 1.2192
          CHANNELS 3 Zrotation Xrotation Yrotation
          JOINT leftEye
          {
            OFFSET 4.14528 8.04674 8.04672
            CHANNELS 3 Zrotation Xrotation Yrotation
            End Site
            {
              OFFSET 1 0 0
            }
          }
          JOINT rightEye
          {
            OFFSET -3.6576 8.04674 8.04672
            CHANNELS 3 Zrotation Xrotation Yrotation
            End Site
            {
              OFFSET 1 0 0
            }
          }
        }
      }
      JOINT rCollar
      {
        OFFSET -2.68224 19.2634 -4.8768
        CHANNELS 3 Zrotation Xrotation Yrotation
        JOINT rShldr
        {
          OFFSET -8.77824 -1.95073 1.46304
          CHANNELS 3 Zrotation Xrotation Yrotation
          JOINT rForeArm
          {
            OFFSET -28.1742 -1.7115 0.48768
            CHANNELS 3 Zrotation Xrotation Yrotation
            JOINT rHand
            {
              OFFSET -22.5879 0.773209 7.07136
              CHANNELS 3 Zrotation Xrotation Yrotation
              JOINT rThumb1
              {
                OFFSET -1.2192 -0.487915 3.41376
                CHANNELS 3 Zrotation Xrotation Yrotation
                JOINT rThumb2
                {
                  OFFSET -3.37035 -0.52449 3.41376
                  CHANNELS 3 Zrotation Xrotation Yrotation
                  End Site
                  {
                    OFFSET -1.78271 -1.18214 1.43049
                  }
                }
              }
              JOINT rIndex1
              {
                OFFSET -7.75947 0.938293 5.60832
                CHANNELS 3 Zrotation Xrotation Yrotation
                JOINT rIndex2
                {
                  OFFSET -2.54057 -0.884171 1.56538
                  CHANNELS 3 Zrotation Xrotation Yrotation
                  End Site
                  {
                    OFFSET -1.62519 -0.234802 1.16502
                  }
                }
              }
              JOINT rMid1
              {
                OFFSET -8.24714 1.18213 3.41376
                CHANNELS 3 Zrotation Xrotation Yrotation
                JOINT rMid2
                {
                  OFFSET -3.10165 -0.590103 1.0647
                  CHANNELS 3 Zrotation Xrotation Yrotation
                  End Site
                  {
                    OFFSET -2.48547 -0.328903 0.83742
                  }
                }
              }
              JOINT rRing1
              {
                OFFSET -8.82822 0.546677 1.51678
                CHANNELS 3 Zrotation Xrotation Yrotation
                JOINT rRing2
                {
                  OFFSET -2.60934 -0.819778 -0.0198488
                  CHANNELS 3 Zrotation Xrotation Yrotation
                  End Site
                  {
                    OFFSET -2.33842 -0.294052 0.168128
                  }
                }
              }
              JOINT rPinky1
              {
                OFFSET -8.27202 -0.0477905 -0.4584
                CHANNELS 3 Zrotation Xrotation Yrotation
                JOINT rPinky2
                {
                  OFFSET -1.82734 -0.647385 -0.700984
                  CHANNELS 3 Zrotation Xrotation Yrotation
                  End Site
                  {
                    OFFSET -1.69225 -0.51767 -0.607171
                  }
                }
              }
            }
          }
        }
      }
      JOINT lCollar
      {
        OFFSET 2.68224 19.2634 -4.8768
        CHANNELS 3 Zrotation Xrotation Yrotation
        JOINT lShldr
        {
          OFFSET 8.77824 -1.95073 1.46304
          CHANNELS 3 Zrotation Xrotation Yrotation
          JOINT lForeArm
          {
            OFFSET 28.1742 -1.7115 0.48768
            CHANNELS 3 Zrotation Xrotation Yrotation
            JOINT lHand
            {
              OFFSET 22.5879 0.773209 7.07136
              CHANNELS 3 Zrotation Xrotation Yrotation
              JOINT lThumb1
              {
                OFFSET 1.2192 -0.487915 3.41376
                CHANNELS 3 Zrotation Xrotation Yrotation
                JOINT lThumb2
                {
                  OFFSET 3.37035 -0.52449 3.41376
                  CHANNELS 3 Zrotation Xrotation Yrotation
                  End Site
                  {
                    OFFSET 1.78271 -1.18214 1.43049
                  }
                }
              }
              JOINT lIndex1
              {
                OFFSET 7.75947 0.938293 5.60832
                CHANNELS 3 Zrotation Xrotation Yrotation
                JOINT lIndex2
                {
                  OFFSET 2.54057 -0.884171 1.56538
                  CHANNELS 3 Zrotation Xrotation Yrotation
                  End Site
                  {
                    OFFSET 1.62519 -0.234802 1.16502
                  }
                }
              }
              JOINT lMid1
              {
                OFFSET 8.24714 1.18213 3.41376
                CHANNELS 3 Zrotation Xrotation Yrotation
                JOINT lMid2
                {
                  OFFSET 3.10165 -0.590103 1.0647
                  CHANNELS 3 Zrotation Xrotation Yrotation
                  End Site
                  {
                    OFFSET 2.48547 -0.328903 0.83742
                  }
                }
              }
              JOINT lRing1
              {
                OFFSET 8.82822 0.546677 1.51678
                CHANNELS 3 Zrotation Xrotation Yrotation
                JOINT lRing2
                {
                  OFFSET 2.60934 -0.819778 -0.0198488
                  CHANNELS 3 Zrotation Xrotation Yrotation
                  End Site
                  {
                    OFFSET 2.33842 -0.294052 0.168128
                  }
                }
              }
              JOINT lPinky1
              {
                OFFSET 8.27202 -0.0477905 -0.4584
                CHANNELS 3 Zrotation Xrotation Yrotation
                JOINT lPinky2
                {
                  OFFSET 1.82734 -0.647385 -0.700984
                  CHANNELS 3 Zrotation Xrotation Yrotation
                  End Site
                  {
                    OFFSET 1.69225 -0.51767 -0.607171
                  }
                }
              }
            }
          }
        }
      }
    }
  }
  JOINT rButtock
  {
    OFFSET -8.77824 4.35084 1.2192
    CHANNELS 3 Zrotation Xrotation Yrotation
    JOINT rThigh
    {
      OFFSET 0 -1.70687 -2.19456
      CHANNELS 3 Zrotation Xrotation Yrotation
      JOINT rShin
      {
        OFFSET 0 -36.8199 0.73152
        CHANNELS 3 Zrotation Xrotation Yrotation
        JOINT rFoot
        {
          OFFSET 0.73152 -45.1104 -5.12064
          CHANNELS 3 Zrotation Xrotation Yrotation
          End Site
          {
            OFFSET -1.1221 -3.69964 12.103
          }
        }
      }
    }
  }
  JOINT lButtock
  {
    OFFSET 8.77824 4.35084 1.2192
    CHANNELS 3 Zrotation Xrotation Yrotation
    JOINT lThigh
    {
      OFFSET 0 -1.70687 -2.19456
      CHANNELS 3 Zrotation Xrotation Yrotation
      JOINT lShin
      {
        OFFSET 0 -36.8199 0.73152
        CHANNELS 3 Zrotation Xrotation Yrotation
        JOINT lFoot
        {
          OFFSET -0.73152 -45.1104 -5.12064
          CHANNELS 3 Zrotation Xrotation Yrotation
          End Site
          {
            OFFSET 1.1221 -3.69964 12.103
          }
        }
      }
    }
  }
}
MOTION
Frames:	4
Frame Time:	0.00833333
65.9534 84.2186 -30.1934 -197.813 5.5484 -170.929 5.75417 28.1016 0.395616 5.74678 -4.98969 1.67188 -9.64317 -1.66277 -13.6754 5.99319 -10.0256 -23.9894 -0.0 0.0 0.0 -0.0 0.0 0.0 -4.24677e-13 -4.03037e-14 -1.0362e-13 50.3661 -11.5935 13.2109 -13.8541 -6.83816 25.2594 -0.0176079 3.19323 0.449188 -3.96113e-10 1.08532e-09 2.40768e-10 -6.88997e-10 1.8785e-09 4.17765e-10 -3.96107e-10 1.08532e-09 2.40765e-10 7.73091 5.47488 0.417314 -3.96114e-10 1.08532e-09 2.40771e-10 2.90554 0.965183 0.102902 -3.96107e-10 1.08532e-09 2.40772e-10 10.2786 0.731801 0.0259123 -3.96119e-10 1.08532e-09 2.40782e-10 2.22167 -0.733487 -0.20892 -4.24756e-13 -4.02541e-14 -1.03724e-13 -14.1781 25.4605 -9.90601 16.3829 -9.04822 -30.4841 0.126095 9.92931 -1.40966 -7.69775e-10 -4.2388e-09 -1.2778e-09 -1.33858e-09 -7.32146e-09 -2.19995e-09 -7.69773e-10 -4.2388e-09 -1.2778e-09 -7.73091 5.47488 -0.417314 -7.69771e-10 -4.2388e-09 -1.27781e-09 -2.90554 0.965183 -0.102902 -7.69779e-10 -4.2388e-09 -1.27781e-09 -10.2786 0.731801 -0.0259123 -7.6977e-10 -4.2388e-09 -1.27782e-09 -2.22167 -0.733487 0.20892 -2.03217e-16 0.0 -3.88251e-19 -41.7889 -36.6624 -4.67385 -0.064303 26.3018 0.250508 0.599207 -1.33943 -0.738388 2.03217e-16 0.0 3.88251e-19 10.4837 -15.2496 30.6721 0.232746 33.5755 -0.684032 5.51785 18.6795 -22.2521
67.0112 83.5728 -30.9747 -198.725 2.2187 -171.626 6.26197 27.7202 -0.0525128 6.12276 -5.05549 1.52895 -9.65144 -2.15151 -13.4254 6.08271 -9.56987 -23.5702 -0.0 0.0 0.0 -0.0 0.0 0.0 -3.55424e-13 -3.18283e-14 -1.89988e-13 52.0222 -9.27806 12.1123 -13.9419 -6.90773 25.4373 -0.0109727 2.98939 0.420517 8.19333e-10 8.89259e-11 1.34843e-10 1.4139e-09 1.52686e-10 2.31738e-10 8.19339e-10 8.89255e-11 1.34843e-10 7.73091 5.47488 0.417314 8.19332e-10 8.89241e-11 1.34846e-10 2.90554 0.965183 0.102902 8.1934e-10 8.89247e-11 1.34848e-10 10.2786 0.731801 0.0259123 8.19327e-10 8.89259e-11 1.34856e-10 2.22167 -0.733487 -0.20892 -3.55454e-13 -3.17828e-14 -1.90088e-13 -11.5969 22.9685 -9.76034 16.5242 -9.18351 -30.7872 0.133372 10.3561 -1.47167 -1.07201e-09 -3.71205e-09 -1.48008e-09 -1.86452e-09 -6.40859e-09 -2.5473e-09 -1.07201e-09 -3.71204e-09 -1.48008e-09 -7.73091 5.47488 -0.417314 -1.07201e-09 -3.71205e-09 -1.48009e-09 -2.90554 0.965183 -0.102902 -1.07201e-09 -3.71205e-09 -1.48009e-09 -10.2786 0.731801 -0.0259123 -1.07201e-09 -3.71205e-09 -1.48011e-09 -2.22167 -0.733487 0.20892 -2.03217e-16 0.0 -3.88251e-19 -43.1569 -34.8708 -6.36391 -0.0864541 28.9055 0.343009 0.593119 -4.41404 -0.767922 2.03217e-16 0.0 3.88251e-19 12.0061 -15.3731 31.8674 0.274115 36.4581 -0.727972 3.69308 15.4631 -19.8606
67.8541 82.9006 -31.6324 -199.919 -1.505 -172.094 6.402 27.5109 -0.311595 6.54668 -5.38624 1.21999 -9.63528 -2.50737 -13.1749 6.16395 -9.13605 -23.0709 -0.0 0.0 0.0 -0.0 0.0 0.0 -2.65404e-13 -3.25225e-14 -1.86997e-13 54.0983 -7.79334 11.2525 -13.9474 -6.91178 25.4488 -0.00454072 2.31679 0.325651 1.39843e-09 -5.64663e-10 3.69392e-10 2.41581e-09 -9.78208e-10 6.36907e-10 1.39843e-09 -5.64664e-10 3.69391e-10 7.73091 5.47488 0.417314 1.39842e-09 -5.64665e-10 3.69394e-10 2.90554 0.965183 0.102902 1.39843e-09 -5.64665e-10 3.69395e-10 10.2786 0.731801 0.0259123 1.39842e-09 -5.64663e-10 3.69402e-10 2.22167 -0.733487 -0.20892 -2.65398e-13 -3.24799e-14 -1.87112e-13 -8.92712 19.9744 -9.7486 16.6381 -9.29289 -31.0339 0.128359 9.98031 -1.41713 -1.71435e-09 -4.04542e-09 -1.57505e-09 -2.97623e-09 -6.9846e-09 -2.70916e-09 -1.71435e-09 -4.04541e-09 -1.57505e-09 -7.73091 5.47488 -0.417314 -1.71435e-09 -4.04541e-09 -1.57505e-09 -2.90554 0.965183 -0.102902 -1.71436e-09 -4.04541e-09 -1.57506e-09 -10.2786 0.731801 -0.0259123 -1.71435e-09 -4.04541e-09 -1.57507e-09 -2.22167 -0.733487 0.20892 -2.03217e-16 0.0 -3.88251e-19 -44.7603 -33.327 -8.75871 -0.120645 32.3984 0.473643 0.494643 -7.00344 -1.27153 2.03217e-16 0.0 3.88251e-19 13.3134 -15.5818 32.793 0.324105 39.2084 -0.778647 1.82515 11.8012 -15.8526
68.8397 82.2227 -32.2805 -200.869 -4.9459 -172.658 6.2759 27.4102 -0.447096 7.00121 -5.89243 0.790302 -9.56401 -2.78772 -12.8956 6.21289 -8.71167 -22.4824 -0.0 0.0 0.0 -0.0 0.0 0.0 -1.46808e-13 -3.77888e-14 -1.35397e-13 56.466 -6.94263 10.5985 -13.9048 -6.87767 25.3633 0.00059756 1.16668 0.163745 1.70594e-09 -1.10396e-09 7.73826e-10 2.9481e-09 -1.9104e-09 1.33723e-09 1.70594e-09 -1.10396e-09 7.73822e-10 7.73091 5.47488 0.417314 1.70594e-09 -1.10396e-09 7.73828e-10 2.90554 0.965183 0.102902 1.70595e-09 -1.10396e-09 7.73825e-10 10.2786 0.731801 0.0259123 1.70593e-09 -1.10396e-09 7.73833e-10 2.22167 -0.733487 -0.20892 -1.46767e-13 -3.77491e-14 -1.3554e-13 -6.22255 16.4821 -9.81918 16.7341 -9.38575 -31.2428 0.109712 8.90525 -1.2617 -2.59782e-09 -4.80289e-09 -1.61543e-09 -4.50365e-09 -8.29486e-09 -2.77654e-09 -2.59783e-09 -4.80289e-09 -1.61543e-09 -7.73091 5.47488 -0.417314 -2.59782e-09 -4.80289e-09 -1.61543e-09 -2.90554 0.965183 -0.102902 -2.59783e-09 -4.80289e-09 -1.61544e-09 -10.2786 0.731801 -0.0259123 -2.59782e-09 -4.80289e-09 -1.61545e-09 -2.22167 -0.733487 0.20892 -2.03217e-16 0.0 -3.88251e-19 -46.3795 -31.8659 -11.6762 -0.182282 36.5667 0.644809 0.295129 -9.47536 -1.9909 2.03217e-16 0.0 3.88251e-19 14.549 -15.8912 33.5174 0.382513 41.9755 -0.83008 0.299961 7.2257 -10.6861
